<?xml version="1.0" encoding="utf-8"?>
<!-- Generator: Adobe Illustrator 27.5.0, SVG Export Plug-In . SVG Version: 6.00 Build 0)  -->
<svg version="1.1" id="Layer_1" xmlns="http://www.w3.org/2000/svg" xmlns:xlink="http://www.w3.org/1999/xlink" x="0px" y="0px"
	 viewBox="0 0 1024 1024" style="enable-background:new 0 0 1024 1024;" xml:space="preserve">
<g>
	<path style="fill:#18171C;" d="M382.018,161.953c49.46-22.977,107.557-21.427,158.594-4.466
		c36.162-8.227,75.987-6.48,109.107,11.622c21.919,11.524,40.36,28.471,56.912,46.686c3.24-3.691,6.551-7.339,10.354-10.48
		c45.164,27.512,79.129,70.491,102.809,117.233c1.959,0.296,4.029,0.817,5.043,2.747c12.764,17.003,22.427,36.316,29.767,56.124
		c26.864,13.171,40.868,41.177,52.235,67.337c15.482,18.37,34.331,34.429,45.318,56.293c12.031,20.975,17.609,44.642,25.583,67.252
		c8.172,21.779,22.554,40.612,38.261,57.504c9.904,11.213,10.861,29.076,1.478,40.923c-11.452,14.003-31.314,18.159-48.501,15.004
		c-26.232-3.423-46.925-21.159-68.831-34.345c-43.305-27.428-91.919-46.629-142.562-54.87c-29.881-4.775-60.9-6.1-90.37,1.846
		c34.091,35.499,68.237,72.816,89.2,117.853c8.268,18.386,10.48,39.248,6.818,59.026c18.327,2.691,36.993,5.621,54.39,12.257
		c12.608,5.621,27.809,19.327,21.386,34.428c-9.764,7.03-22.075,12.228-34.274,9.524c-10.777,6.762-23.386-0.424-34.894,1.506
		c-26.385,8.565-55.207,7.396-81.551-0.619c-4.775-12.354-12.861-23.313-22.822-31.991c-18.904-17.384-44.797-23.146-65.575-37.6
		c-26.483-17.933-47.475-42.783-65.167-69.168c-10.242,24.454-21.695,48.854-37.952,69.957c25.146,6.748,52.082,14.129,69.845,34.57
		c11.496,9.114,12.58,34.866-7.086,31.794c-6.663,6.283-15.467,8.003-24.173,9.369c-11.102,10.183-26.103-1.366-38.135,5.648
		c-28.287,8.283-59.109,3.409-85.932-7.607c-8.734-15.298-17.751-30.823-30.204-43.543c-8.705-9.65-18.018-18.794-25.766-29.26
		c-11.832,9.721-24.497,18.426-38.02,25.625c11.875,1.507,23.99,3.227,34.823,8.663c12.171,5.664,25.737,13.693,29.386,27.556
		c1.521,9.423-10.902,7.874-16.849,7.325c-20.919,1.774-42.19,4.689-63.49,1.803c-21.216,1.916-42.403,4.72-63.717,5.72
		c-37.274,1.197-75.634,0.689-111.626-9.946c-4.748-7.818-6.692-17.327-11.341-25.357c-8.508-16.496-19.088-32.218-32.654-44.938
		c-3.352,12.776-6.142,25.724-6.226,38.993c-18.849-48.418-26.724-102.767-12.792-153.353
		c-0.563-20.554,10.242-39.388,21.723-55.715c-6.424-8.001-12.453-16.3-17.398-25.301c-23.455,42.036-28.724,91.862-22.723,139.027
		c0.268,1.985,0.38,3.987,0.353,6.015c-21.004-56.616-14.777-121.376,12.228-174.964C53.785,483.495,84.58,435.5,123.108,402.902
		c3.169-58.561,49.742-104.19,97.962-131.717c2.381-11.129,3.409-22.933,8.636-33.231c32.091-40.247,82.552-63.224,133.293-67.323
		C370.311,170.462,375.425,164.377,382.018,161.953z"/>
	<path style="fill:#FEBC15;" d="M430.604,159.432c34.274-1.62,70.549,3.354,100.175,21.624
		c-34.613,17.426-67.422,40.529-90.709,71.915c16.792,1.958,32.43,8.382,47.292,16.13c-1.974,2.028-5.072,2.015-7.678,1.902
		c-37.191,0.789-74.24,11.283-107.204,28.442c-8.283,0.027-16.595-0.747-24.892-0.959c0.21-3.042,0.549-6.057,1.154-9.029
		c2.943-1.508,7.255-2.212,7.931-6.086c12.595-39.304,32.57-77.719,64.436-104.795c17.102-10.34,37.909-3.973,56.561-3.536
		C463.216,166.757,446.48,163.884,430.604,159.432z"/>
	<path style="fill:#FEE06B;" d="M410.361,164.912c5.014-5.903,13.242-5.255,20.243-5.48c15.876,4.452,32.611,7.325,47.065,15.608
		c-18.651-0.436-39.459-6.804-56.561,3.536c-31.865,27.076-51.841,65.491-64.436,104.795c-0.676,3.874-4.987,4.578-7.931,6.086
		C355.998,243.209,375.509,197.087,410.361,164.912z"/>
	<path style="fill:#FEE06B;" d="M584.79,167.518c4.239-1.056,8.817-2.93,13.185-1.563c7.212,4.479,15.342,7.551,21.751,13.256
		c-48.996,2.747-94.469,25.695-132.52,55.547c-6.31,5.169-13.227,9.902-17.665,16.904c-0.605-0.07-1.788-0.197-2.38-0.268
		c-1.043-0.085-3.113-0.268-4.142-0.353C494.658,212.71,536.821,181.746,584.79,167.518z"/>
	<path style="fill:#FEBC15;" d="M597.975,165.954c40.403,4.311,77.452,25.554,107.049,52.602
		c-6.846,7.72-12.396,16.538-16.595,25.963c-6.467-5.269-14.707-7.41-22.807-8.494c-3.297-1.099-6.213-3.058-9.369-4.452
		c-3.662,4.185-6.508,8.96-9.917,13.327c-10.847-0.704-21.652,0.408-32.429,1.423c-15.595-4.1-31.485-8.438-47.756-7.903
		c-8.199,8.171-12.128,19.694-17.158,29.964c-2.239-0.662-4.465-1.296-6.691-1.931c-23.821-6.86-48.192-11.664-72.761-14.791
		c4.439-7.002,11.355-11.735,17.665-16.904c38.051-29.852,83.523-52.8,132.52-55.547
		C613.316,173.505,605.186,170.434,597.975,165.954z"/>
	<path style="fill:#FEBC15;" d="M278.688,212.541c25.271-11.989,54.109-15.355,81.875-14.06
		c-21.034,34.358-36.234,73.071-37.065,113.909c-19.496,4.733-36.514,16.976-52.757,28.4c-6.845,5.846-15.27,10.96-18.666,19.722
		c-0.718-2.227-1.676-4.409-1.858-6.748c-1.592-31.357-1.761-63.336,7.269-93.736c3.436-10.41,4.563-24.089,15.918-29.16
		c18.834-11.425,41.106-13.242,61.871-18.553C316.512,208.497,296.846,217.527,278.688,212.541z"/>
	<path style="fill:#FEE06B;" d="M252.739,232.714c2.098-12.242,16.298-15.989,25.949-20.173c18.158,4.986,37.824-4.044,56.588-0.226
		c-20.765,5.311-43.037,7.128-61.871,18.553c-11.355,5.071-12.482,18.75-15.918,29.16c-9.03,30.4-8.861,62.379-7.269,93.736
		C238.581,314.561,239.285,271.425,252.739,232.714z"/>
	<path style="fill:#FEE06B;" d="M724.437,219.57c6.395,4.282,11.805,9.875,16.805,15.707c-2.435-1.479-5.014-2.69-7.521-3.973
		c-16.609,8.819-23.371,27.949-23.273,45.812c-2.606-7.409-5.043-14.946-6.268-22.708
		C707.446,241.223,715.377,229.559,724.437,219.57z"/>
	<path style="fill:#FEBC15;" d="M710.446,277.116c-0.098-17.862,6.664-36.992,23.273-45.812c2.508,1.282,5.086,2.493,7.521,3.973
		c17.215,18.13,30.992,39.628,40.571,62.731c0.029,0.859,0.099,2.578,0.127,3.438c-13.241-5.818-24.371-16.299-38.26-20.37
		c-11.313,6.311-15.665,20.257-13.765,32.64c-0.506,1.986-1.309,3.889-2.057,5.805C720.337,306.263,715.124,291.627,710.446,277.116
		z"/>
	<path style="fill:#A2730C;" d="M665.622,236.024c8.1,1.084,16.34,3.226,22.807,8.494c-0.676,2.916-1.535,5.79-2.619,8.579
		C679.554,246.844,672.088,242.011,665.622,236.024z"/>
	<path style="fill:#FEBC15;" d="M660.762,240.124c9.974,3.183,18.271,10.677,25.878,17.637c4.396,11.199,7.636,22.892,11.861,34.176
		c-18.088,5.733-35.414,14.707-49.263,27.837c-3.747-5.847-7.804-11.553-11.003-17.709
		C640.321,279.962,648.14,258.395,660.762,240.124z"/>
	<path style="fill:#A2730C;" d="M613.907,246.322c10.776-1.015,21.582-2.127,32.429-1.423c-1.915,3.803-3.888,7.551-5.86,11.312
		C631.418,253.549,622.698,249.759,613.907,246.322z"/>
	<path style="fill:#FEE06B;" d="M571.941,245.856c14.862,0.127,29.583,3.367,43.727,7.748c-13.214,3.974-30.612-2.07-40.487,9.918
		c-11.932,18.327-18.031,40.162-21.131,61.575c-0.662-0.45-1.973-1.339-2.621-1.789
		C552.263,296.543,557.207,268.692,571.941,245.856z"/>
	<path style="fill:#4C4036;" d="M467.161,251.394c0.592,0.07,1.774,0.197,2.38,0.268c24.568,3.127,48.939,7.931,72.761,14.791
		c-15.524,0.62-31.062,1.987-46.487,2.874C486.7,262.705,475.078,259.535,467.161,251.394z"/>
	<path style="fill:#FEBC15;" d="M615.669,253.605c7.662,1.789,14.891,5.198,22.145,8.227c-6.368,13.383-10.51,27.61-14.469,41.839
		c-21.313,3.874-44.332,10.044-60.236,25.498c-3.057-1.296-6.1-2.593-9.058-4.071c3.1-21.413,9.199-43.248,21.131-61.575
		C585.057,251.534,602.455,257.578,615.669,253.605z"/>
	<path style="fill:#A2730C;" d="M372.48,299.445c32.964-17.159,70.013-27.653,107.204-28.442
		c-1.775,5.479-2.015,11.326-3.917,16.777c-25.244,0.662-50.615,5.664-73.268,17.06C392.456,303.953,382.355,301.628,372.48,299.445
		z"/>
	<path style="fill:#FEBC15;" d="M500.702,276.723c14.679-4.805,30.781-4.691,45.967-2.381c-6.466,20.68-10.171,42.36-9.679,64.054
		c1.551,2.889,5.156,4.113,7.466,6.396c-11.861,1.423-23.948,2.451-35.344,6.24c-3.184,6.27-3.564,13.608-5.381,20.357
		c-8.691-1.832-17.496-2.93-26.244-4.424c0.041-0.535,0.14-1.605,0.196-2.141c-0.408-25.301,4.367-51.785,18.596-73.113
		c9.606-9.228,24.779-6.649,36.288-12.298C522.749,274.919,510.859,282.357,500.702,276.723z"/>
	<path style="fill:#FEE06B;" d="M485.714,281.188c4.804-1.915,9.791-4.381,14.988-4.465c10.157,5.635,22.047-1.804,31.865,2.69
		c-11.509,5.648-26.682,3.07-36.288,12.298c-14.228,21.328-19.004,47.813-18.596,73.113
		C475.092,336.818,477.007,308.052,485.714,281.188z"/>
	<path style="fill:#A2730C;" d="M729.915,313.715c-1.9-12.383,2.452-26.329,13.765-32.64c13.889,4.071,25.018,14.552,38.26,20.37
		c-0.028-0.859-0.098-2.578-0.127-3.438c5.649,14.439,12.764,29.287,12.481,45.079c-15.1-14.481-26.188-32.851-41.458-47.347
		C742.298,283.047,734.593,305.771,729.915,313.715z"/>
	<path style="fill:#A2730C;" d="M649.238,319.773c13.849-13.13,31.175-22.104,49.263-27.837
		c6.579,15.791,13.566,31.526,19.047,47.741c-15.834-9.974-30.359-23.525-48.531-28.893c-6.198,5.367-9.523,13.045-13.976,19.75
		C652.802,327.112,650.873,323.506,649.238,319.773z"/>
	<path style="fill:#FEBC15;" d="M182.26,323.182c13.157-8.86,27.301-16.819,42.614-21.229c-1.366,27.99,4.127,55.686,11.213,82.508
		c-20.357,5.354-37.458,20.963-53.503,34.457c-8.847,9.017-19.145,17.794-23.145,30.218c-2.775-7.184-5.775-14.608-6.733-22.228
		c6.114-25.599-6.015-57.886,13.834-78.946c16.834-15.65,37.43-26.329,57.73-36.627c-14.651,2.424-26.738,11.975-40.783,16.173
		C183.19,326.422,182.57,324.267,182.26,323.182z"/>
	<path style="fill:#A2730C;" d="M563.108,329.169c15.904-15.454,38.924-21.624,60.236-25.498
		c7.989,17.074,16.977,33.668,24.738,50.869c-19.356-9.692-39.022-19.455-60.448-23.694
		C583.324,345.229,571.28,333.297,563.108,329.169z"/>
	<path style="fill:#FEBC15;" d="M753.61,395.364c-9.495-27.513-19.934-64.195,2.493-88.144
		c14.75,16.342,27.429,34.655,37.148,54.404c-11.03-4.535-21.3-11.156-32.866-14.171c-8.902-0.493-7.804,10.721-7.479,16.722
		c0.804,9.354-0.62,26.92,13.961,23.215c-0.127,0.535-0.353,1.621-0.465,2.17C762.05,391.308,757.964,393.617,753.61,395.364z"/>
	<path style="fill:#FEE06B;" d="M183.486,327.507c14.045-4.198,26.131-13.749,40.783-16.173
		c-20.3,10.298-40.896,20.977-57.73,36.627c-19.849,21.061-7.72,53.348-13.834,78.946c-6.128-23.442-7.833-48.278-5.015-72.311
		c9.424-12.439,21.934-22.356,34.57-31.415C182.57,324.267,183.19,326.422,183.486,327.507z"/>
	<path style="fill:#FEBC15;" d="M439.86,311.8c9.1-1.296,18.369-0.69,27.455,0.45c-4.846,23.779-5.297,48.404-1.874,72.409
		c-8.846,3.704-22.44,3.267-26.581,13.27c-9.426,4.311-16.3,12.48-24.865,17.609c-6.747-0.521-13.538-0.677-20.3-0.212
		c-0.155-1.31-0.239-2.605-0.239-3.915c-1.196-27.556-2.212-58.66,13.114-82.679c12.651-9.354,29.19-9.157,44.179-10.002
		C446.903,316.786,443.227,314.504,439.86,311.8z"/>
	<path style="fill:#A2730C;" d="M270.742,340.791c16.243-11.425,33.26-23.667,52.757-28.4c18.117,0.635,36.106,3.17,53.419,8.706
		c2.974,3.733-2.915,4.34-5.409,4.875c-30.949,5.719-61.011,18.341-84.735,39.345c-11.438-0.141-23.102-1.226-34.654-1.339
		c-0.014-0.872-0.042-2.605-0.042-3.465C255.472,351.751,263.896,346.637,270.742,340.791z"/>
	<path style="fill:#FEE06B;" d="M392.921,326.576c13.045-10.255,30.724-13.41,46.94-14.776c3.366,2.704,7.043,4.986,10.889,6.931
		c-14.988,0.845-31.527,0.647-44.179,10.002c-15.326,24.019-14.31,55.123-13.114,82.679
		C387.399,383.715,385.286,354.089,392.921,326.576z"/>
	<path style="fill:#FEE06B;" d="M664.382,375.586c0.366-19.215,3.268-39.021,12.833-55.969c13.82,4.564,25.709,13.608,37.331,22.146
		c-11.128-2.197-21.37-10.706-32.979-8.86c-10.987,8.255-9.311,24.047-15.298,35.387c0.522,1.113,1.028,2.24,1.55,3.38
		c1.057,5.326,2.494,10.622,5.212,15.385C669.665,383.742,664.001,381.066,664.382,375.586z"/>
	<path style="fill:#FEBC15;" d="M681.567,332.902c11.608-1.846,21.851,6.663,32.979,8.86c7.834,3.324,9.721,12.369,12.144,19.639
		c-0.014,0.535-0.014,1.605-0.014,2.141c-19.666-3.564-41.528-2.775-58.857,8.127c-0.521-1.14-1.028-2.267-1.55-3.38
		C672.257,356.949,670.58,341.157,681.567,332.902z"/>
	<path style="fill:#FEE06B;" d="M592.776,337.198c13.862,2.607,27.344,7.34,39.951,13.679c-11.58,0.774-23.779-5.311-34.781-1.183
		c-8.481,15.06-10.537,34.33-7.847,51.151c2.551,4.549,6.03,8.579,7.889,13.51c-6.058-4.1-13.213-7.721-17.313-13.905
		C579.985,378.968,583.254,356.695,592.776,337.198z"/>
	<path style="fill:#FEBC15;" d="M812.678,395.576c-3.563-18.187,2.635-36.839,13.947-51.066c8.678,5.142,1.296,17.764,2.507,25.963
		c-2.859-1.465-5.705-2.944-8.508-4.466c-7.102,7.199-5.621,18.201-5.706,27.428C814.354,393.97,813.229,395.041,812.678,395.576z"
		/>
	<path style="fill:#A2730C;" d="M752.906,364.176c-0.324-6.001-1.423-17.215,7.479-16.722c11.566,3.015,21.836,9.636,32.866,14.171
		c4.183,5.227,6.663,11.877,9.269,18.09c-12.467,1.535-24.344,5.733-36.119,9.846c0.112-0.549,0.338-1.635,0.465-2.17
		C752.286,391.096,753.71,373.529,752.906,364.176z"/>
	<path style="fill:#FEBC15;" d="M597.946,349.694c11.002-4.128,23.201,1.957,34.781,1.183c5.621,1.733,10.82,4.817,15.807,7.96
		c-1.339,14.241-9.299,33.556,7.227,41.613c-21.229-2.226-46.291-10.199-65.661,0.396
		C587.409,384.024,589.466,364.754,597.946,349.694z"/>
	<path style="fill:#FEE06B;" d="M515.367,357.245c17.525-4.607,38.007-11.355,55.109-2.367c-12.877,4.071-26.273,6.452-39.727,9.029
		c-12.848,1.691-14.116,17.103-14.763,27.4c-3.198,14.341,1.184,28.653,4.254,42.601
		C508.056,411.509,510.999,382.067,515.367,357.245z"/>
	<path style="fill:#FEBC15;" d="M338.882,358.964c10.227-2.086,20.596-3.509,31.021-4.143c-0.451,23.174,2.635,46.587,11.749,68.042
		c-12.552,2.818-24.809,7.565-35.472,14.792c-13.158,8.184-24.794,18.313-35.994,28.92c-2.705-6.028-6.452-11.818-7.579-18.397
		c-0.802-19.285-3.057-39.19,1.93-58.053c9.622-14.722,28.245-18.06,43.361-24.414c-4.79-0.436-9.608-0.634-14.426-0.605
		c1.901-1.677,4.113-3.212,5.127-5.635L338.882,358.964z"/>
	<path style="fill:#FEBC15;" d="M530.75,363.907c13.453-2.577,26.85-4.958,39.727-9.029c6.719,4.804-3.226,15.877-2.69,23.525
		c-17.948-0.395-36.501,3.156-51.799,12.904C516.634,381.011,517.902,365.599,530.75,363.907z"/>
	<path style="fill:#FEE06B;" d="M297.564,377.572c12.045-9.016,26.217-15.453,41.036-18.102c-1.014,2.423-3.226,3.958-5.127,5.635
		c4.818-0.028,9.635,0.17,14.426,0.605c-15.116,6.354-33.739,9.692-43.361,24.414c-4.987,18.862-2.732,38.768-1.93,58.053
		c-7.198-17.553-9.48-37.022-9.087-55.913C294.127,387.321,292.929,380.883,297.564,377.572z"/>
	<path style="fill:#A2730C;" d="M667.819,371.669c17.328-10.902,39.19-11.691,58.857-8.127c0-0.535,0-1.605,0.014-2.141
		c3.874,10.283,8.396,20.397,11.638,30.92c-14.439,5.143-28.711,11.2-40.854,20.737c-7.89-8.917-16.624-17.073-24.442-26.005
		C670.313,382.291,668.876,376.995,667.819,371.669z"/>
	<path style="fill:#A2730C;" d="M814.918,393.435c0.085-9.227-1.396-20.229,5.706-27.428c2.803,1.521,5.648,3.001,8.508,4.466
		C832.471,382.193,825.835,390.321,814.918,393.435z"/>
	<path style="fill:#C18B0C;" d="M515.987,391.308c15.298-9.748,33.851-13.299,51.799-12.904c-2.028,11.848-2.38,23.878-2.621,35.866
		c4.143,2.424,8.621,4.24,12.496,7.129c-5.494,0.394-11.031,0.226-16.427,1.423c-1.986,9.03-2.915,18.257-4.057,27.441
		c-12.537-4.762-24.962-9.861-36.866-16.017l-0.07-0.338C517.171,419.961,512.789,405.648,515.987,391.308z"/>
	<path style="fill:#A2730C;" d="M182.584,418.918c16.045-13.494,33.147-29.103,53.503-34.457
		c12.565,3.438,26.145,2.155,38.415,6.987c-29.751,8.608-60.56,23.02-77.254,50.404c-4.254,16.116-24.61,8.608-36.98,11.509
		c-0.337-1.408-0.605-2.817-0.83-4.226C163.439,436.712,173.738,427.935,182.584,418.918z"/>
	<path style="fill:#FEBC15;" d="M482.98,392.759c5.48-0.282,10.96-0.817,16.469-0.663c-0.691,4.213-1.143,8.481-1.353,12.764
		c-0.239,4.283-0.62,8.552-0.944,12.849c-14.707,4.057-30.316,7.17-42.642,16.749c-3.718,10.678,3.888,21.329,2.536,32.077
		c-2.507-5.466-4.62-11.228-5.663-17.159c1.323-11.044-1.465-23.342,4.325-33.358c8.663-9.129,22.82-7.297,33.654-12.171
		c-1.86-3.565-3.817-7.072-5.987-10.439L482.98,392.759z"/>
	<path style="fill:#FEE06B;" d="M447.227,404.564c11.129-5.86,23.512-10.256,36.148-11.156c2.17,3.366,4.127,6.874,5.987,10.439
		c-10.834,4.874-24.991,3.042-33.654,12.171c-5.79,10.017-3.002,22.314-4.325,33.358
		C447.608,434.965,444.818,419.23,447.227,404.564z"/>
	<path style="fill:#A2730C;" d="M590.1,400.846c19.37-10.595,44.432-2.621,65.661-0.396c8.227,5.889,15.115,14.115,20.539,22.737
		c-16.877-6.24-34.148-13.074-52.306-13.623c-1.959,5.945-3.114,12.101-4.903,18.088c-7.255-3.915-15.017-7.832-21.102-13.297
		C596.13,409.425,592.65,405.395,590.1,400.846z"/>
	<path style="fill:#A2730C;" d="M413.995,415.538c8.565-5.129,15.439-13.299,24.865-17.609c-0.677,6.959-0.608,14.059-2.439,20.835
		C428.983,417.369,421.476,416.538,413.995,415.538z"/>
	<path style="fill:#C18B0C;" d="M497.152,417.708c0.324-4.297,0.705-8.565,0.944-12.849c0.745,12.369-0.648,25.245,2.774,37.232
		c9.665,8.509,22.962,11.975,33.514,19.413c-10.199,0.196-20.397-0.084-30.597,0.099c-0.72,9.381,0.971,18.723,2.802,27.879
		c-17.48-2.86-46.91,0.576-49.544-22.948c1.352-10.748-6.254-21.399-2.536-32.077C466.836,424.878,482.445,421.765,497.152,417.708z
		"/>
	<path style="fill:#FEBC15;" d="M263.727,420.863c4.436-0.479,8.861-1.198,13.313-1.521c4.043,20.989,12.579,40.867,24.414,58.616
		c-13.426,5.001-25.682,12.722-37.148,21.216c-13.581,9.875-27.878,20.511-35.514,35.908c-4.354,0.042-6.283-9.749-8.242-14.017
		c-2.563-22.103-7.479-44.896-2.732-66.929c12.143-12.214,29.329-17.511,44.754-24.301c2.409-1.845,3.761-6.127,1.395-8.579
		L263.727,420.863z"/>
	<path style="fill:#FEE06B;" d="M208.491,446.332c14.665-14.622,35.584-21.185,55.475-25.075c2.366,2.452,1.014,6.734-1.395,8.579
		c-15.426,6.79-32.611,12.087-44.754,24.301c-4.748,22.033,0.169,44.826,2.732,66.929
		C210.449,497.695,205.843,471.704,208.491,446.332z"/>
	<path style="fill:#6C5C4D;" d="M756.498,445.474c17.751-20.736,48.461-27.26,74.395-22.188
		c19.934,4.944,35.739,19.187,49.673,33.556c25.188,25.06,46.614,54.757,57.574,88.861c-2.367,7.65-9.523,11.482-16.146,14.904
		c-6.732,14.849,1.481,29.669,8.354,42.77c-2.438,0.339-4.873,0.648-7.213,1.396c-12.425-17.173-11.847-40.417-24.3-57.702
		c-10.636-16.791-32.373-22.482-50.996-18.087c-22.343,5.057-48.938-7.199-56.04-29.753c-3.449-12.622,1.002-26.555-5.141-38.656
		C781.856,448.967,768.304,443.952,756.498,445.474z"/>
	<path style="fill:#FEBC15;" d="M634.967,422.92c10.581,0.239,20.555,4.283,30.147,8.397c-9.396,2.041-25.723,3.732-24.005,16.932
		c-1.339,11.242,8.848,17.215,16.525,23.005c-1.015,0.973-1.987,1.986-2.931,3.029c-5.508-3.48-11.481-6.382-16.708-10.186
		C633.277,451.038,634.136,436.599,634.967,422.92z"/>
	<path style="fill:#A2730C;" d="M665.114,431.316c7.691,3.113,14.877,7.944,21.271,13.255
		c-10.185,8.241-19.454,17.455-28.751,26.682c-7.678-5.79-17.864-11.763-16.525-23.005
		C639.392,435.049,655.718,433.357,665.114,431.316z"/>
	<path style="fill:#FEBC15;" d="M569.081,437.796c9.13-2.592,18.37-5.143,27.809-6.27c3.283,2.944,6.791,5.635,10.214,8.438
		c-8.452,3.832-17.962,4.283-26.386,8.073c-1.748,11.945-3.283,29.189,9.819,35.442c8.663,6.931,19.876,11.834,27.132,19.793
		c-14.566-6.255-29.895-11.129-43.797-18.736C568.49,469.773,569.067,453.361,569.081,437.796z"/>
	<path style="fill:#FEBC15;" d="M94.85,461.293c10.79-12.298,24.793-21.301,39.134-28.936c6.368,17.496,13.312,35.092,23.906,50.531
		c-30.119,16.609-56.673,41.979-70.563,73.817c-3.381-6.382-6.297-13.116-8.029-20.116c-6.706-28.865,10.551-53.912,25.864-76.451
		c-2.874,1.45-5.79,2.858-8.819,3.958C95.976,463.406,95.229,461.997,94.85,461.293z"/>
	<path style="fill:#FEBC15;" d="M387.272,437.443c14.988-4.17,30.906-4.847,46.389-3.888c0.508,6.297,0.38,12.665,1.578,18.905
		c-14.087-1.817-28.795,0.253-42.093,5.1c-10.003,3.423-11.256,15.932-8.721,24.75c4.044,20.668,20.68,35.586,38.178,45.601
		c-17.482,0.155-32.303-8.579-38.895-24.948c-0.127-12.734-8.523-24.624-5.325-37.514c3.255-8.679,13.764-9.594,20.792-13.849
		C397.4,445.389,391.287,442.078,387.272,437.443z"/>
	<path style="fill:#A2730C;" d="M310.186,466.575c11.2-10.607,22.835-20.735,35.994-28.92c-0.112,10.198,2.015,20.201,2.859,30.315
		c-12.327-0.254-24.328,2.859-36.542,3.663C311.75,469.928,310.989,468.252,310.186,466.575z"/>
	<path style="fill:#FEE06B;" d="M358.689,447.487c8.254-5.339,18.778-8.311,28.583-10.044c4.015,4.635,10.128,7.945,11.902,14.157
		c-7.028,4.255-17.537,5.17-20.792,13.849c-3.197,12.89,5.198,24.779,5.325,37.514C372.466,486.017,364.253,467.013,358.689,447.487
		z"/>
	<path style="fill:#A2730C;" d="M607.103,439.965l0.648-0.253c15.102,4.648,7.002,22.061,11.918,32.851
		c8.34,7.354,17.876,13.412,25.723,21.399c-3.986,5.55-8.199,10.944-12.227,16.453c-5.368-1.901-10.426-4.578-15.496-7.142
		c-7.256-7.959-18.469-12.862-27.132-19.793c-13.102-6.254-11.567-23.497-9.819-35.442
		C589.142,444.248,598.651,443.797,607.103,439.965z"/>
	<path style="fill:#C18B0C;" d="M393.146,457.561c13.298-4.847,28.006-6.917,42.093-5.1c2.353,10.566,5.522,20.976,10.438,30.667
		c5.733,19.441,29.81,18.512,45.938,22.878c-19.763,4.775-39.388,11.003-57.038,21.3c-3.508,2.493-8.255,2.606-11.974,0.605
		c-17.498-10.015-34.134-24.933-38.178-45.601C381.891,473.492,383.144,460.983,393.146,457.561z"/>
	<path style="fill:#9A9589;" d="M734.424,556.382c-36.049-25.554-20.004-94.385,23.343-102.878
		c7.987-1.17,16.819,0.295,22.596,6.366c-6.325-2.605-13.073-1.972-19.609-0.704c-31.147,5.874-38.359,43.262-39.402,69.984
		c0.647-2.506,1.31-5.014,1.859-7.535C721.971,534.406,727.127,546.24,734.424,556.382z"/>
	<path style="fill:#FEFEFE;" d="M721.351,529.15c1.043-26.723,8.256-64.11,39.402-69.984c-25.063,9.777-33.217,38.458-37.543,62.449
		C722.66,524.137,721.998,526.645,721.351,529.15z"/>
	<path style="fill:#FEE06B;" d="M96.342,464.097c3.029-1.1,5.945-2.508,8.819-3.958c-15.313,22.539-32.57,47.586-25.864,76.451
		c-4.903-16.553-12.143-36.359-1.832-52.32c4.719-8.409,10.72-16.046,17.384-22.977C95.229,461.997,95.976,463.406,96.342,464.097z"
		/>
	<path style="fill:#A2730C;" d="M519.255,466.731c12.116-1,25.964-2.733,36.839,3.509c2.253,10.438,2.761,21.356,6.311,31.583
		c14.976,5.184,30.991,8.156,44.952,15.862c-9.466,5.24-19.201,10.368-29.484,13.777c-11.917-3.071-24.47-4.466-35.739-9.565
		c-11.213-7.847-19.313-20.061-23.328-33.063c-3.467-9.621,10.819-12.228,10.79-21.357
		C526.144,467.167,522.692,466.857,519.255,466.731z"/>
	<path style="fill:#FEBC15;" d="M507.802,467.295c3.805-0.198,7.622-0.62,11.453-0.564c3.438,0.127,6.889,0.436,10.34,0.747
		c0.029,9.128-14.257,11.735-10.79,21.357c4.015,13.002,12.115,25.216,23.328,33.063c11.27,5.1,23.822,6.494,35.739,9.565
		c-12.834,3.184-26.104-2.564-39.105-3.113c-9.256,0.423-12.679-9.27-16.638-15.807C515.085,498.399,508.479,483.27,507.802,467.295
		z"/>
	<path style="fill:#A2730C;" d="M157.89,482.889c9.917-3.804,21.61-5.367,32.132-4.043c-34.344,12.946-77.522,36.866-75,79.439
		c-6.339,5.015-11.904,10.861-17.905,16.214c-3.564-5.719-7.678-11.396-9.791-17.792C101.216,524.868,127.77,499.498,157.89,482.889
		z"/>
	<path style="fill:#FEBC15;" d="M312.427,494.244c12.846-5.283,26.766-8.017,40.514-9.988c2.635,6.648,5.028,13.396,7.579,20.074
		c-20.991,7.029-41.713,16.961-58.082,32.09c10.059,20.652,29.823,35.135,50.137,44.883c-4.508,0.971-9.594,2.973-13.96,0.563
		c-16.482-9.016-31.712-21.089-42.135-36.881c-0.648-8.185-2.071-17.553,2.888-24.709c10.382-10.904,25.287-15.2,38.599-21.314
		C329.515,497.089,320.386,497.976,312.427,494.244z"/>
	<path style="fill:#FEE06B;" d="M278.941,510.035c10.495-6.199,21.37-11.96,32.866-16.073l0.621,0.282
		c7.958,3.732,17.087,2.845,25.54,4.719c-13.313,6.113-28.217,10.409-38.599,21.314c-4.958,7.156-3.536,16.524-2.888,24.709
		C288.732,534.42,282.928,522.488,278.941,510.035z"/>
	<path style="fill:#A2730C;" d="M228.791,535.082c7.635-15.397,21.933-26.033,35.514-35.908
		c-0.142,10.551,2.662,20.723,4.579,31.006C255.373,530.433,242.131,533.279,228.791,535.082z"/>
	<path style="fill:#FEBC15;" d="M186.909,503.273c2.973-1.536,6.367-1.973,9.65-2.338c3.394,13.706,9.606,26.413,15.946,38.937
		c-23.849,11.368-44.783,29.499-58.969,51.855c-6.015-10.989-10.396-22.963-12.58-35.29c2.254-11.184,5.762-22.961,14.243-31.089
		C164.256,515.924,177.203,511.909,186.909,503.273z"/>
	<path style="fill:#FEE06B;" d="M137.857,529.419c13.552-12.974,31.048-21.356,49.052-26.146
		c-9.706,8.636-22.653,12.65-31.711,22.075c-8.48,8.128-11.988,19.905-14.243,31.089
		C139.195,547.536,138.449,538.463,137.857,529.419z"/>
	<path style="fill:#A2730C;" d="M302.438,536.42c16.37-15.129,37.092-25.061,58.082-32.09c6.382,10.594,11.481,22.258,20.018,31.386
		c7.917,5.241,17.215,8.143,26.202,11.101c-10.227,10.172-20.638,20.259-29.231,31.908c-8.24,1.07-16.65,1.916-24.934,2.578
		C332.261,571.555,312.497,557.072,302.438,536.42z"/>
	<path style="fill:#6C5C4D;" d="M380.383,592.474c21.554-37.768,61.857-65.788,105.261-70.619
		c-5.551,7.129-9.186,16.412-18.426,19.638c-35.374,19.511-75.41,46.529-79.988,90.369c-2.551,12.299,3.901,23.794,3.648,35.895
		c-2.226-0.155-4.466-0.282-6.678-0.366C371.747,644.512,371.466,616.604,380.383,592.474z"/>
	<path style="fill:#4C4036;" d="M485.644,521.854c18.777-0.015,30.99,19.679,33.076,36.626c2.212,20.131-3.014,40.938-12.03,58.885
		c-5.791,11.017-13.763,20.37-22.863,28.822c-6.129-9.085-10.27-28.695-25.16-23.032c-12.495,14.595-17.722,34.866-32.104,48.15
		c-5.114,3.648-16.131,6.931-12.396,15.143c1.845,3.847-2.578,6.269-4.776,8.691c-10.48-6.901-20.003-16.157-25.188-27.751
		c2.212,0.084,4.452,0.211,6.678,0.366c0.253-12.101-6.199-23.596-3.648-35.895c4.578-43.84,44.614-70.858,79.988-90.369
		C476.458,538.267,480.093,528.983,485.644,521.854z"/>
	<path style="fill:#4C4036;" d="M777.347,561.341c-11.635-7.1-11.678-28.597,2.944-32.062c18.286-1.917,33.599,11.902,44.799,24.75
		l-0.451,0.677c-0.438,0.619-1.282,1.888-1.719,2.521c4.888,9.34,9.087,19.187,15.411,27.681
		c11.313,12.891,31.26,18.934,47.291,11.82c7.621-2.648,15.51,0.592,23.258,0.845c5.086,0.846,8.227,5.691,12.496,8.241
		c0.437-0.268,1.309-0.789,1.76-1.042c2.34-0.747,4.775-1.057,7.213-1.396c-6.874-13.101-15.087-27.921-8.354-42.77
		c6.622-3.422,13.778-7.254,16.146-14.904c9.677,28.287,21.75,55.73,35.584,82.214c-9.382,4.452-14.608,15.496-10.678,25.427
		c-7.326-0.449-9.777-8.1-14.158-12.691c-11.086-12.002-23.004-23.809-37.739-31.261c-20.892-9.381-45.108-3.323-65.914-13.185
		C822.313,585.247,798.324,575.88,777.347,561.341z"/>
	<path style="fill:#A2730C;" d="M153.536,591.728c14.186-22.356,35.12-40.487,58.969-51.855c0.718,0.549,2.156,1.661,2.86,2.226
		c-5.423,10.579-19.496,15.947-23.709,27.795c2.381,9.156,8.128,16.975,12.256,25.412c-9.707,6.199-21.61,2.071-32.331,2.649
		C165.286,597.137,155.086,600.476,153.536,591.728z"/>
	<path style="fill:#FEBC15;" d="M209.645,571.498c18.765-14.116,42.15-21.088,64.689-27.091c1.746,2.409,3.184,5.03,4.563,7.678
		c-21.989,7.087-44.727,19.018-57.264,39.162C216.802,585.316,211.519,579.049,209.645,571.498z"/>
	<path style="fill:#FEFEFE;" d="M845.727,564.651c-2.197-11.523,13.552-20.596,22.61-15.384c5.467,10.834-14.764,12.396-13.368,1
		c-11.904,12.764,2.817,33.261,18.595,30.161c5.424,0.029,8.733-4.944,13.397-6.255
		C878.113,590.812,847.699,583.232,845.727,564.651z"/>
	<path style="fill:#A2730C;" d="M221.635,591.247c12.537-20.144,35.274-32.075,57.264-39.162
		c9.157,12.765,20.666,23.583,33.683,32.358c-24.948,11.073-52.038,14.355-78.466,20.243
		C229.495,600.673,225.114,596.306,221.635,591.247z"/>
	<path style="fill:#6C5C4D;" d="M822.92,557.228c0.436-0.634,1.281-1.902,1.719-2.521c9.536,9.367,15.848,22.032,27.399,29.301
		c17.115,11.214,40.12,1.127,56.842,13.566c-7.748-0.253-15.637-3.493-23.258-0.845c-16.031,7.113-35.978,1.07-47.291-11.82
		C832.007,576.415,827.808,566.567,822.92,557.228z"/>
	<path style="fill:#FEBC15;" d="M44.416,704.608c-6.001-47.165-0.732-96.991,22.723-139.027c4.945,9.001,10.974,17.3,17.398,25.301
		c-11.481,16.327-22.286,35.161-21.723,55.715C54.686,665.221,48.714,685.097,44.416,704.608z"/>
	<path style="fill:#FEBC15;" d="M82.931,623.648c10.721-14.988,25.624-26.357,40.754-36.612c1.705,2.846,3.17,5.859,4.156,9.058
		c-15.821,13.453-29.147,30.541-36.218,50.222C88.002,639.116,84.255,631.594,82.931,623.648z"/>
	<path style="fill:#322C25;" d="M356.872,666.601c0.522-25.977,7.354-53.602,23.511-74.127c-8.917,24.131-8.636,52.038,3.817,74.916
		c5.185,11.594,14.708,20.85,25.188,27.751c2.198-2.422,6.621-4.845,4.776-8.691c-3.734-8.213,7.282-11.495,12.396-15.143
		c14.383-13.284,19.609-33.556,32.104-48.15c14.891-5.663,19.031,13.947,25.16,23.032c9.101-8.452,17.072-17.806,22.863-28.822
		c-4.367,16.159-14.849,30.021-24.174,43.742c-23.159,27.244-31.696,63.941-56.616,89.903c-4.89,5.312-12.581,12.369-20.033,7.27
		C375.452,738.657,355.505,703.087,356.872,666.601z"/>
	<path style="fill:#A2730C;" d="M91.623,646.315c7.071-19.681,20.398-36.768,36.218-50.222c6.283,11.144,13.523,21.709,21.455,31.78
		c-14.749,12.722-29.879,25.244-42.177,40.53C101.343,661.501,95.75,654.359,91.623,646.315z"/>
	<path style="fill:#FEBC15;" d="M90.439,718.371c24.963-51.574,74.282-86.833,126.152-107.95c4.436,2.451,7.55,6.804,12.087,9.184
		c-65.351,31.543-135.041,78.171-152.354,153.523C75.113,754.083,82.959,735.585,90.439,718.371z"/>
	<path style="fill:#FEFEFE;" d="M880.636,617.648c16.157,2.325,32.091,8.129,45.389,17.722
		c16.369,12.087,26.301,30.626,42.262,43.136c-25.935-10.636-39.867-37.727-64.168-50.94
		C896.821,623.029,888.453,620.916,880.636,617.648z"/>
	<path style="fill:#9A9589;" d="M973.724,627.917c10.566-3.817,22.581-9.932,33.767-5.339c-12.692,2.198-25.779,5.535-36.443,12.974
		c-7.579,5.607-6.156,15.68-3.648,23.497c-1.605-1.788-3.254-3.563-4.352-5.705C959.115,643.413,964.342,632.369,973.724,627.917z"
		/>
	<path style="fill:#4C4036;" d="M142.929,711.709c37.782-44.869,94.202-75.171,152.551-80.945
		c0.043,8.775-6.874,15.157-11.847,21.637c-19.201,22.005-48.179,31.4-69.592,50.672c15.666,1.649,33.021,1.354,46.616,10.227
		c7.859,5.917-0.859,14.088-7.636,15.384c-23.497,9.311-55.869,8.606-68.689,34.372c-2.931,8.213-10.41,22.724-20.877,15.003
		c-14.257-12.114-17.116-32.218-27.357-47.262C130.151,723.865,139.435,717.357,142.929,711.709z"/>
	<path style="fill:#E3E0D9;" d="M977.696,640.977c7.875,0.041,8.973,10.733,0.732,11.692
		C968.581,656.331,968.216,640.412,977.696,640.977z"/>
	<path style="fill:#FEBC15;" d="M70.562,741.911c-1.873-22.159,0.705-44.784,7.805-65.886c3.733,5.156,8.213,9.789,11.622,15.157
		C81.748,707.354,74.465,724.076,70.562,741.911z"/>
	<path style="fill:#FEFEFE;" d="M496.771,763.535c16.257-21.104,27.71-45.503,37.952-69.957
		c17.692,26.385,38.684,51.235,65.167,69.168c20.778,14.453,46.671,20.216,65.575,37.6c-30.793,0.126-61.602-3.946-92.425-4.691
		c-2.382,0.027-5.228-0.07-6.425,2.451C548.853,777.664,521.917,770.283,496.771,763.535z"/>
	<path style="fill:#FEFEFE;" d="M355.321,764.507c7.748,10.466,17.06,19.609,25.766,29.26c-9.889,1.409-19.876,0.337-29.822,0.465
		c0.296,1.507,0.564,3.028,0.859,4.564c-10.833-5.437-22.948-7.156-34.823-8.663C330.824,782.933,343.489,774.228,355.321,764.507z"
		/>
	<path style="fill:#322C25;" d="M435.605,796.104c17.426-35.498,65.83-27.793,94.483-11.987c-9.707-2.043-18.609,3.69-16.159,14.396
		c-6.719-5.07-12.663-11.396-20.707-14.41c0.93,1.535,1.873,3.043,2.858,4.578c-12.087-0.565-21.285,8.269-16.002,20.609
		c-2.705,0.196-5.395,0.395-8.073,0.592c3.086,4.382,6.242,8.762,8.453,13.692C464.061,843.508,421.447,821.63,435.605,796.104z"/>
	<path style="fill:#322C25;" d="M178.908,799.895c21.511-20.85,54.279-22.977,82.621-21.005c7.65,1.535,17.764,0.409,22.724,7.678
		c-13.764,9.777-32.542,4.353-46.742,12.706c-7.339,6.96,10.974,12.355,3.846,19.259c-17.511,7.142-37.557,4.789-55.546,0.576
		C177.034,817.503,171.399,806.486,178.908,799.895z"/>
	<path style="fill:#FEFEFE;" d="M524.271,796.076c-4.902-4.986,3.874-7.748,7.326-4.438c9.438,8.339,15.086,21.06,14.551,33.726
		C542.133,813.446,533.71,804.021,524.271,796.076z"/>
	<path style="fill:#D4D0C5;" d="M351.265,794.231c9.946-0.128,19.934,0.944,29.822-0.465c12.453,12.72,21.47,28.245,30.204,43.543
		c26.822,11.017,57.645,15.891,85.932,7.607c12.031-7.015,27.033,4.535,38.135-5.648c8.706-1.366,17.51-3.086,24.173-9.369
		c19.666,3.072,18.582-22.68,7.086-31.794c1.197-2.522,4.043-2.424,6.425-2.451c30.823,0.745,61.632,4.817,92.425,4.691
		c9.961,8.678,18.047,19.637,22.822,31.991c0.435,3.339-0.888,6.762-4.536,7.467c-37.317,12.186-77.071,11.213-115.699,15.763
		c-53.756,1.269-107.429,2.029-161.2,2.185c-56.545-1.226-113.669-1.239-169.399-12.073c2.621-1.733,5.635-2.635,8.678-3.297
		c-2.888-0.381-5.775-0.859-8.678-1.183c21.314-1,42.501-3.804,63.717-5.72c21.3,2.887,42.571-0.028,63.49-1.803
		c5.946,0.549,18.37,2.098,16.849-7.325c-3.648-13.862-17.215-21.892-29.386-27.556C351.829,797.26,351.56,795.738,351.265,794.231z
		"/>
	<path style="fill:#E3E0D9;" d="M545.485,795.245c11.13-0.803,17.243,11.157,19.201,20.454
		C560.137,807.149,551.247,802.19,545.485,795.245z"/>
	<path style="fill:#FEFEFE;" d="M780.729,796.865c9.466-3.889,16.13,9.255,17.835,16.82
		C794.491,806.12,787.42,801.627,780.729,796.865z"/>
	<path style="fill:#FEFEFE;" d="M488.319,799.738c3.143-4.239,8.805-2.592,11.875,0.804c7.509,7.579,13.271,18.031,12.242,29.005
		C508.168,816.729,495.856,809.713,488.319,799.738z"/>
	<path style="fill:#FEFEFE;" d="M804.071,796.964c7.367,0.845,12.41,7.818,14.059,14.58
		C814.608,805.529,808.156,802.106,804.071,796.964z"/>
	<path style="fill:#FEFEFE;" d="M820.426,796.513c5.931-0.253,8.665,5.678,10.651,10.27
		C827.583,803.289,823.736,800.176,820.426,796.513z"/>
	<path style="fill:#E3E0D9;" d="M9.157,826.039c33.823-12.016,69.9-16.284,105.33-20.145c4.649,8.03,6.593,17.539,11.341,25.357
		c35.992,10.636,74.352,11.143,111.626,9.946c2.903,0.323,5.79,0.802,8.678,1.183c-3.043,0.662-6.057,1.563-8.678,3.297
		c55.73,10.834,112.854,10.848,169.399,12.073c53.772-0.155,107.444-0.916,161.2-2.185c38.628-4.55,78.382-3.577,115.699-15.763
		c3.648-0.705,4.972-4.128,4.536-7.467c26.344,8.016,55.166,9.185,81.551,0.619c11.509-1.93,24.117,5.256,34.894-1.506
		c12.199,2.704,24.511-2.494,34.274-9.524c6.648,3.043,14.918,4.339,19.511,10.565c2.281,5.143-2.197,9.03-6.537,10.721
		c-20.92,9.326-43.797,12.819-66.223,16.525c-100.753,14.692-202.617,17.227-304.23,19.538
		c-135.448,0.071-271.235-2.732-405.684-20.651c-24.596-4.185-50.559-6.678-72.775-18.807
		C-4.354,835.295,3.282,827.28,9.157,826.039z"/>
	<path style="fill:#FEFEFE;" d="M312.595,805.585c6.524-0.816,11.707,4.17,13.299,10.157
		C322.372,811.178,315.807,809.952,312.595,805.585z"/>
	<path style="fill:#FEFEFE;" d="M332.951,805.149c7.425-1.212,12.848,5.084,15.018,11.452
		C343.728,811.77,337.911,809.037,332.951,805.149z"/>
</g>
</svg>
